<svg width="20" height="21" viewBox="0 0 20 21" fill="none" xmlns="http://www.w3.org/2000/svg">
<path d="M16.75 0.75H3.25C2.45462 0.750869 1.69206 1.06722 1.12964 1.62964C0.567218 2.19206 0.250869 2.95462 0.25 3.75V17.25C0.250869 18.0454 0.567218 18.8079 1.12964 19.3704C1.69206 19.9328 2.45462 20.2491 3.25 20.25H16.75C17.5454 20.2491 18.3079 19.9328 18.8704 19.3704C19.4328 18.8079 19.7491 18.0454 19.75 17.25V3.75C19.7491 2.95462 19.4328 2.19206 18.8704 1.62964C18.3079 1.06722 17.5454 0.750869 16.75 0.75ZM15.0742 7.23234L8.77422 14.7323C8.70511 14.8147 8.61912 14.8812 8.52207 14.9273C8.42502 14.9735 8.31918 14.9983 8.21172 15H8.19906C8.09394 15 7.99 14.9778 7.89398 14.935C7.79797 14.8922 7.71202 14.8297 7.64172 14.7516L4.94172 11.7516C4.87315 11.6788 4.81981 11.5931 4.78483 11.4995C4.74986 11.4059 4.73395 11.3062 4.73805 11.2063C4.74215 11.1064 4.76617 11.0084 4.8087 10.9179C4.85124 10.8275 4.91142 10.7464 4.98572 10.6796C5.06002 10.6127 5.14694 10.5614 5.24136 10.5286C5.33579 10.4958 5.43581 10.4822 5.53556 10.4886C5.63531 10.495 5.73277 10.5213 5.82222 10.5659C5.91166 10.6106 5.99128 10.6726 6.05641 10.7484L8.17938 13.1072L13.9258 6.26766C14.0547 6.11863 14.237 6.02631 14.4335 6.01066C14.6299 5.99501 14.8246 6.05728 14.9754 6.18402C15.1263 6.31075 15.2212 6.49176 15.2397 6.68793C15.2582 6.8841 15.1988 7.07966 15.0742 7.23234Z" fill="#006EE9"/>
</svg>
