<svg width="20" height="20" viewBox="0 0 20 20" fill="none" xmlns="http://www.w3.org/2000/svg">
<path d="M14.6694 0.000396729C18.0704 0.000396729 19.9904 1.9294 20.0004 5.3304V14.6704C20.0004 18.0704 18.0704 20.0004 14.6694 20.0004H5.3304C1.9294 20.0004 0.000400066 18.0704 0.000400066 14.6704V5.3304C0.000400066 1.9294 1.9294 0.000396729 5.3304 0.000396729H14.6694ZM10.5004 4.1304C10.2194 3.9604 9.8794 3.9604 9.6104 4.1304C9.3394 4.2994 9.1904 4.6104 9.2194 4.9204V15.1104C9.2704 15.5404 9.6294 15.8604 10.0494 15.8604C10.4804 15.8604 10.8394 15.5404 10.8794 15.1104V4.9204C10.9194 4.6104 10.7704 4.2994 10.5004 4.1304ZM5.8304 7.4104C5.5604 7.2404 5.2194 7.2404 4.9504 7.4104C4.6794 7.5804 4.5304 7.8894 4.5604 8.2004V15.1104C4.5994 15.5404 4.9594 15.8604 5.3894 15.8604C5.8204 15.8604 6.1794 15.5404 6.2194 15.1104V8.2004C6.2504 7.8894 6.0994 7.5804 5.8304 7.4104ZM15.0894 11.0404C14.8204 10.8704 14.4804 10.8704 14.2004 11.0404C13.9294 11.2104 13.7804 11.5094 13.8204 11.8304V15.1104C13.8604 15.5404 14.2194 15.8604 14.6504 15.8604C15.0704 15.8604 15.4294 15.5404 15.4804 15.1104V11.8304C15.5094 11.5094 15.3604 11.2104 15.0894 11.0404Z" fill="#006EE9"/>
</svg>
