<svg width="10" height="10" viewBox="0 0 10 10" fill="none" xmlns="http://www.w3.org/2000/svg">
<path d="M7.56969 0.451191C8.09469 -0.0603089 8.91969 -0.0603089 9.42969 0.451191C9.93969 0.96119 9.93969 1.80119 9.42969 2.30969L6.75969 4.98119L9.42969 7.65118C9.93969 8.16118 9.93969 8.98618 9.42969 9.49468C9.17469 9.74968 8.84469 9.88618 8.49969 9.88618C8.16969 9.88618 7.83969 9.76618 7.58469 9.49468L4.91469 6.84118L2.24468 9.49468C1.98968 9.74968 1.65969 9.88618 1.31469 9.88618C0.98469 9.88618 0.639697 9.74968 0.384697 9.49468C-0.125303 8.98618 -0.125303 8.16118 0.384697 7.63618L3.05469 4.98119L0.384697 2.30969C-0.125303 1.80119 -0.125303 0.96119 0.384697 0.451191C0.894697 -0.0603089 1.71968 -0.0603089 2.24468 0.451191L4.91469 3.11969L7.56969 0.451191Z" fill="white"/>
</svg>
